<?xml version="1.0" standalone="no"?>
<!DOCTYPE svg PUBLIC "-//W3C//DTD SVG 20010904//EN"
 "http://www.w3.org/TR/2001/REC-SVG-20010904/DTD/svg10.dtd">
<svg version="1.0" xmlns="http://www.w3.org/2000/svg"
 width="1007.000000pt" height="1007.000000pt" viewBox="0 0 1007.000000 1007.000000"
 preserveAspectRatio="xMidYMid meet">
<metadata>
Created by potrace 1.14, written by Peter Selinger 2001-2017
</metadata>
<g transform="translate(0.000000,1007.000000) scale(0.100000,-0.100000)"
fill="#000000" stroke="none">
<path d="M4749 10056 c-2 -2 -47 -7 -99 -10 -92 -7 -249 -23 -300 -31 -14 -2
-45 -7 -70 -11 -25 -4 -54 -8 -65 -9 -39 -5 -281 -57 -360 -77 -44 -11 -88
-21 -97 -23 -9 -2 -26 -9 -37 -15 -12 -6 -21 -8 -21 -4 0 3 -7 1 -15 -6 -8 -7
-15 -10 -15 -7 0 2 -37 -6 -82 -20 -46 -13 -90 -25 -98 -25 -8 -1 -17 -5 -20
-9 -3 -5 -15 -10 -25 -12 -11 -1 -25 -5 -30 -9 -6 -3 -27 -9 -48 -13 -20 -4
-37 -12 -37 -17 0 -5 -6 -8 -12 -5 -7 2 -29 -4 -49 -14 -20 -10 -39 -15 -43
-12 -3 4 -6 1 -6 -5 0 -7 -3 -11 -7 -10 -5 2 -28 -6 -53 -16 -25 -11 -48 -19
-52 -18 -5 1 -8 -2 -8 -8 0 -5 -8 -10 -18 -10 -10 0 -62 -21 -114 -48 -53 -26
-94 -43 -91 -37 2 5 -2 2 -11 -9 -9 -11 -20 -15 -28 -10 -7 4 -10 4 -6 -1 8
-8 -65 -47 -90 -48 -6 0 -10 -3 -7 -5 6 -6 -104 -64 -122 -65 -7 0 -15 -7 -18
-15 -3 -8 -12 -11 -21 -8 -8 3 -12 2 -9 -4 7 -12 -32 -33 -47 -24 -6 4 -8 3
-5 -3 5 -8 -40 -38 -51 -34 -1 1 -12 -8 -24 -18 -11 -11 -25 -18 -30 -15 -4 3
-8 0 -8 -6 0 -6 -12 -16 -27 -22 -16 -7 -36 -18 -45 -26 -10 -9 -18 -12 -18
-9 0 3 -11 -5 -25 -19 -14 -14 -30 -22 -37 -18 -6 4 -8 3 -5 -3 4 -6 -7 -16
-23 -23 -17 -7 -30 -17 -30 -23 0 -6 -3 -8 -6 -5 -3 4 -14 -2 -25 -13 -10 -10
-26 -19 -35 -19 -8 0 -12 -4 -9 -10 3 -5 2 -10 -3 -10 -5 0 -26 -13 -47 -30
-20 -16 -41 -27 -46 -24 -5 3 -8 1 -7 -4 4 -14 -72 -73 -85 -65 -5 3 -7 1 -4
-4 7 -12 -42 -49 -58 -44 -5 1 -7 -1 -3 -4 7 -7 -39 -50 -53 -50 -4 0 -11 -4
-16 -9 -5 -5 -2 -6 7 -2 8 4 4 -1 -10 -12 -14 -11 -47 -41 -74 -66 -27 -25
-53 -43 -58 -40 -5 3 -7 0 -6 -8 2 -7 -3 -12 -10 -10 -8 1 -11 -1 -8 -6 5 -9
-59 -72 -73 -72 -4 0 -15 -14 -25 -30 -9 -17 -22 -28 -27 -24 -5 3 -8 2 -7 -3
4 -12 -41 -55 -52 -48 -5 3 -12 0 -16 -6 -4 -8 -3 -9 4 -5 7 4 12 4 12 1 0
-10 -40 -50 -51 -50 -5 0 -8 -3 -6 -7 4 -12 -46 -58 -56 -51 -6 3 -7 1 -3 -6
10 -15 -13 -43 -28 -34 -6 3 -8 3 -4 -2 7 -7 -19 -40 -33 -40 -4 0 -11 -4 -16
-9 -5 -5 -3 -6 5 -2 18 11 15 -1 -10 -29 -11 -13 -25 -22 -29 -19 -4 2 -11 -1
-15 -7 -4 -8 -3 -9 4 -5 7 4 12 3 12 -2 0 -12 -35 -43 -42 -37 -3 3 -11 -3
-19 -12 -13 -16 -12 -17 4 -4 9 7 17 9 17 4 0 -12 -31 -41 -45 -43 -5 -1 -12
-4 -15 -7 -3 -4 1 -3 8 1 14 8 16 -3 3 -22 -4 -7 -14 -12 -22 -10 -8 2 -13 -3
-11 -10 3 -17 -48 -83 -59 -76 -5 3 -6 -1 -4 -9 6 -13 -30 -62 -45 -62 -5 0
-12 -4 -17 -9 -5 -5 -3 -6 4 -2 17 10 16 0 -3 -29 -9 -14 -20 -23 -24 -20 -5
3 -12 0 -16 -6 -5 -8 -3 -9 6 -4 18 11 13 2 -53 -97 -31 -48 -57 -90 -57 -93
0 -2 -17 -30 -38 -62 -21 -32 -43 -67 -49 -78 -6 -11 -16 -19 -21 -18 -5 1 -9
-3 -8 -10 0 -7 -56 -127 -126 -267 -134 -270 -161 -326 -164 -349 -2 -8 -7
-17 -13 -20 -5 -4 -13 -20 -16 -36 -8 -39 -10 -45 -23 -77 -7 -16 -17 -40 -24
-55 -13 -32 -15 -40 -22 -68 -2 -11 -5 -21 -6 -22 -2 -2 -3 -6 -5 -10 -1 -5
-9 -24 -17 -43 -22 -48 -64 -185 -73 -235 -2 -11 -4 -20 -6 -20 -1 0 -3 -10
-4 -22 -1 -12 -6 -30 -10 -40 -8 -19 -14 -46 -17 -75 -1 -10 -5 -18 -8 -18 -3
0 -6 -8 -7 -17 0 -10 -4 -29 -7 -43 -4 -14 -9 -36 -12 -50 -2 -14 -7 -36 -10
-50 -3 -14 -8 -38 -10 -55 -4 -27 -10 -60 -29 -160 -11 -55 -21 -138 -40 -312
-13 -116 -18 -276 -17 -508 0 -264 0 -266 28 -575 5 -65 13 -125 19 -150 3
-14 8 -41 10 -60 2 -19 6 -46 9 -60 3 -14 8 -38 11 -55 4 -16 8 -41 10 -55 2
-14 6 -36 9 -50 3 -14 8 -35 10 -48 3 -13 7 -31 10 -40 3 -9 7 -34 11 -56 3
-21 8 -43 12 -49 4 -7 8 -18 9 -27 3 -17 35 -137 58 -220 9 -30 25 -80 36
-110 12 -30 23 -63 25 -72 2 -9 9 -27 16 -40 7 -13 12 -25 11 -28 -3 -8 9 -43
30 -89 11 -25 21 -52 23 -60 2 -9 9 -29 16 -46 6 -16 13 -34 14 -40 2 -5 19
-44 38 -85 19 -41 38 -85 42 -97 3 -13 11 -23 16 -23 5 0 9 -9 9 -20 0 -11 5
-20 10 -20 6 0 9 -3 8 -7 -1 -5 19 -50 45 -101 26 -51 44 -98 41 -104 -4 -7
-2 -8 4 -4 7 4 17 -4 24 -21 7 -15 36 -68 65 -117 29 -49 53 -92 53 -96 0 -5
4 -10 9 -12 5 -1 33 -43 63 -93 30 -49 77 -121 104 -158 27 -38 56 -79 64 -90
18 -27 112 -150 120 -157 3 -3 17 -21 30 -40 13 -19 30 -39 36 -45 7 -5 29
-30 49 -54 28 -34 33 -46 23 -54 -9 -6 -8 -7 5 -3 12 4 30 -9 60 -42 167 -186
504 -491 702 -637 44 -32 82 -61 85 -65 9 -12 264 -176 381 -245 84 -50 115
-74 112 -85 -4 -12 -3 -12 5 -2 9 14 16 12 72 -20 112 -63 370 -179 545 -245
22 -9 49 -19 60 -24 30 -13 286 -96 336 -109 24 -6 53 -15 64 -20 25 -11 116
-35 218 -56 42 -9 77 -21 77 -26 0 -5 4 -6 10 -3 16 10 81 -6 73 -18 -4 -6 -1
-7 6 -3 16 10 103 -3 96 -14 -3 -4 9 -6 26 -3 16 2 36 1 42 -4 7 -5 24 -8 40
-7 15 0 27 -3 27 -8 0 -5 5 -6 11 -3 18 12 170 -6 162 -19 -4 -6 1 -5 10 2 9
8 20 11 26 8 5 -3 62 -9 128 -12 65 -4 122 -10 128 -15 14 -13 455 -12 455 2
0 7 32 9 94 7 52 -2 92 0 89 5 -2 4 8 7 22 7 14 0 24 -4 21 -8 -3 -5 1 -9 9
-9 8 0 11 5 8 10 -3 6 9 8 31 5 20 -2 36 0 36 5 0 5 22 7 50 5 30 -3 47 -1 43
5 -3 6 14 8 45 5 29 -3 53 -1 54 3 2 5 30 10 63 13 33 3 60 6 60 7 0 2 30 8
70 13 17 2 30 5 30 6 0 1 11 4 25 5 27 4 63 12 68 15 1 2 10 3 20 4 9 1 22 4
28 8 6 4 21 6 33 3 12 -2 19 0 16 6 -4 5 1 9 10 9 10 0 14 -5 10 -13 -4 -6 0
-4 8 6 8 10 19 17 23 15 15 -3 160 33 244 63 14 5 36 10 50 13 27 5 283 91
315 106 11 5 65 27 120 49 55 21 114 46 130 55 17 9 35 16 41 16 6 0 17 7 24
15 7 9 15 13 18 11 13 -14 610 319 620 345 2 5 8 9 14 9 12 0 248 167 353 251
470 373 857 817 1178 1351 91 151 177 316 177 338 0 9 13 43 29 76 15 32 38
79 49 104 11 25 36 79 55 121 33 74 63 154 57 154 -2 0 7 19 19 42 12 24 19
43 16 43 -3 0 0 10 7 22 7 13 11 27 10 32 -2 4 2 14 8 20 5 7 7 16 3 19 -3 4
-1 7 5 7 7 0 11 3 10 8 -1 7 4 21 30 82 8 19 15 38 14 42 -1 3 5 27 12 52 8
25 12 46 10 46 -2 0 1 12 7 28 6 15 13 38 15 52 3 14 10 43 16 65 6 22 13 45
14 50 2 6 6 24 9 40 3 17 9 39 12 50 4 11 8 27 9 35 2 8 6 31 10 50 4 19 8 44
9 55 1 11 5 31 8 45 14 52 24 112 32 185 3 28 7 61 9 75 2 14 7 52 11 85 3 33
8 71 11 85 16 93 23 598 11 815 -3 61 -7 110 -8 110 0 0 -2 16 -4 35 -6 93
-22 231 -30 270 -3 14 -8 41 -10 60 -2 19 -6 45 -9 56 -2 12 -7 37 -10 55 -6
37 -13 72 -21 107 -14 62 -23 106 -30 151 -3 19 -8 38 -11 43 -3 4 -7 16 -9
25 -2 10 -11 44 -19 76 -9 31 -23 83 -32 115 -8 31 -17 64 -19 72 -13 44 -104
299 -114 318 -7 13 -14 31 -16 40 -2 9 -9 31 -16 47 -6 17 -13 35 -14 40 -2 6
-18 42 -37 80 -19 39 -35 73 -37 77 -9 29 -43 98 -51 103 -6 4 -8 10 -5 15 3
5 1 11 -5 15 -5 3 -10 16 -10 28 0 12 -34 84 -75 161 -41 76 -75 140 -75 142
0 3 -8 17 -19 32 -41 61 -110 169 -121 192 -7 14 -16 27 -19 30 -3 3 -26 34
-50 70 -25 36 -61 86 -80 112 -20 26 -52 69 -71 95 -19 26 -37 50 -40 53 -9 8
-53 64 -80 100 -14 19 -42 52 -63 74 -22 23 -55 59 -74 81 -126 144 -361 369
-543 520 -54 45 -228 175 -235 175 -2 0 -15 10 -28 23 -37 33 -304 201 -404
253 -48 25 -92 49 -98 53 -25 20 -283 145 -415 202 -202 86 -701 248 -850 276
-14 3 -88 18 -165 33 -77 15 -160 31 -185 34 -65 10 -195 25 -265 32 -33 3
-67 8 -75 11 -16 6 -705 14 -711 9z"/>
</g>
</svg>
